<svg xmlns="http://www.w3.org/2000/svg" xmlns:xlink="http://www.w3.org/1999/xlink" version="1.1" x="0px" y="0px" viewBox="0 0 512 640" style="enable-background:new 0 0 512 512;" xml:space="preserve"><g><g><path d="M228.5,282c0-32.4,26.3-58.7,58.7-58.7c11.6,0,22.9,3.4,32.5,9.8c9.6-6.3,20.8-9.8,32.5-9.8c11.2,0,21.7,3.2,30.7,8.7    c2.1-5.5,3.2-10.4,3.2-14.9c0-45.3-36.9-82.2-82.2-82.2c-20.9,0-40.5,7.7-55.7,21.8c-15.2-14.1-34.8-21.8-55.7-21.8    c-45.3,0-82.2,36.9-82.2,82.2c0,37.4,76.5,106,117.5,142.9c7.8,7,14,12.6,17.2,15.7c0.8,0.8,2,1.3,3.2,1.3s2.3-0.5,3.2-1.3    c2.4-2.4,7.7-7.2,14.5-13.2c3.4-3.1,7.4-6.6,11.6-10.4C246.7,322.8,228.5,300.1,228.5,282z M179.1,175.1    c-13.7,5.1-21.5,15-23.3,29.6c-1.4,11.3,1.4,21.1,1.4,21.2c0.7,2.4-0.7,4.9-3.1,5.6c-0.4,0.1-0.8,0.2-1.3,0.2    c-2,0-3.7-1.3-4.3-3.2c-0.1-0.5-3.3-11.7-1.7-24.8c2.2-17.9,12.3-30.7,29.1-36.9c2.3-0.9,4.9,0.3,5.8,2.7    C182.6,171.7,181.4,174.3,179.1,175.1z"/></g><g><path d="M401.8,282c0-1,0-2-0.1-3c0-0.3,0-0.6-0.1-0.9c-0.1-0.7-0.1-1.4-0.2-2.1c0-0.3-0.1-0.6-0.1-0.9c-0.1-0.7-0.2-1.5-0.4-2.2    c0-0.2-0.1-0.4-0.1-0.7c-0.2-1-0.4-1.9-0.7-2.8c0-0.1-0.1-0.3-0.1-0.4c-0.2-0.8-0.5-1.6-0.7-2.4c-0.1-0.2-0.2-0.5-0.2-0.7    c-0.2-0.7-0.5-1.4-0.8-2.1c-0.1-0.2-0.2-0.4-0.2-0.6c-0.7-1.8-1.6-3.6-2.5-5.3c0-0.1-0.1-0.2-0.1-0.2c-0.4-0.8-0.9-1.5-1.4-2.3    c-0.1-0.1-0.2-0.2-0.2-0.4c-0.5-0.8-1-1.6-1.6-2.3c0,0,0,0,0-0.1c-1.2-1.6-2.5-3.2-3.9-4.7c0,0,0,0,0,0c-0.7-0.7-1.4-1.4-2.1-2.1    c0,0,0,0,0,0c-2.2-2.1-4.6-4-7.2-5.6l0,0c-7.8-5-17-7.9-26.9-7.9c-12.1,0-23.4,4.2-32.5,12.1c-9-7.8-20.4-12.1-32.5-12.1    c-27.4,0-49.7,22.3-49.7,49.7c0,15.6,20.5,39,46.6,64c1.8,1.7,3.6,3.4,5.4,5.1c0,0,0.1,0.1,0.1,0.1c1.7,1.6,3.5,3.2,5.2,4.8    c0.2,0.2,0.4,0.4,0.6,0.6c1.7,1.6,3.4,3.1,5.1,4.7c0.2,0.2,0.5,0.4,0.7,0.7c1.7,1.6,3.5,3.2,5.3,4.7c4.5,4.1,8.1,7.3,9.9,9.1    c0.8,0.8,2,1.3,3.2,1.3s2.3-0.5,3.2-1.3c1.4-1.4,4.4-4.1,8.4-7.6C366.1,336.9,401.8,302.2,401.8,282z"/></g></g><text x="0" y="527" fill="#c91a1a" font-size="5px" font-weight="bold" font-family="'Helvetica Neue', Helvetica, Arial-Unicode, Arial, Sans-serif">Created by Pixelz Studio</text><text x="0" y="532" fill="#c91a1a" font-size="5px" font-weight="bold" font-family="'Helvetica Neue', Helvetica, Arial-Unicode, Arial, Sans-serif">from the Noun Project</text></svg>